@startuml
!include ../style.puml
skinparam arrowThickness 1
skinparam arrowColor MODEL_COLOR
skinparam classBackgroundColor MODEL_COLOR
left to right direction

class FindTaskCriteria {
    - List<Predicate<Task>> predicateList
}

interface Predicate {
	+ boolean test(Task task)
	+ boolean equals(Object other)
}

class NameContainsKeywordsPredicate {
    - List<String> keywords
}

class TaskMatchesDatePredicate {
    - Date searchDate
}

class TaskMatchesPriorityPredicate {
    - Priority searchPriority
}

FindTaskCriteria *--"1..3" Predicate
Predicate <|.. NameContainsKeywordsPredicate
Predicate <|.. TaskMatchesDatePredicate
Predicate <|.. TaskMatchesPriorityPredicate

@enduml